<?xml version="1.0" encoding="utf-8"?>
<!-- Generator: Adobe Illustrator 26.3.1, SVG Export Plug-In . SVG Version: 6.00 Build 0)  -->
<svg version="1.1" id="Слой_1" xmlns="http://www.w3.org/2000/svg" xmlns:xlink="http://www.w3.org/1999/xlink" x="0px" y="0px"
	 viewBox="0 0 700 700" style="enable-background:new 0 0 700 700;" xml:space="preserve">
<style type="text/css">
	.st0{fill:#020203;}
	.st1{fill:#FFFFFF;}
</style>
<path class="st0" d="M312.5,213.8h7.4l-3.7-11.1L312.5,213.8z"/>
<path class="st0" d="M472.5,161.3h-244c-11.3,0-20.4,9.1-20.4,20.4v335.4c0,0.3,0,0.7,0,1c0.5,11.9,10.4,21.4,22.4,21.4h239.9
	c12.1,0,21.9-9.5,22.4-21.4c0-0.4,0-0.7,0-1V181.7C492.9,170.5,483.8,161.3,472.5,161.3z M488.8,517.2c0,10.1-8.2,18.4-18.4,18.4
	H230.5c-10.1,0-18.4-8.2-18.4-18.4v-206c0-32.7,26.5-59.2,59.2-59.2h217.5V517.2z M456.7,195.6l-0.7,20.1h-4.8l-0.7-20.1H456.7z
	 M451.3,219.8c0.6-0.6,1.4-0.9,2.4-0.9s1.8,0.3,2.4,0.9s0.9,1.3,0.9,2.1c0,0.8-0.3,1.5-0.9,2.1c-0.6,0.6-1.4,0.9-2.4,0.9
	s-1.8-0.3-2.4-0.9c-0.6-0.6-0.9-1.3-0.9-2.1C450.4,221.2,450.7,220.5,451.3,219.8z M423.5,195.6h19.4v4.7h-13.5v7.1h11.5v4.5h-11.5
	v8h13.5v4.7h-19.5L423.5,195.6L423.5,195.6z M383.7,195.6h7.8l7.5,21.3l7.5-21.3h7.8v29h-6v-8.3l0.6-13.5l-7.8,21.7H397l-7.9-21.7
	l0.6,13.5v8.3h-6V195.6z M336.6,195.6h6l11.7,19.5v-19.5h6v29h-6l-11.7-19.4v19.4h-6V195.6z M313.4,195.6h5.6l10.8,29h-6.4l-2-6.1
	H311l-2,6.1h-6.4L313.4,195.6z M273.4,209.1c0-2.1,0.3-4,0.8-5.8c0.6-1.7,1.4-3.2,2.4-4.4c1.1-1.2,2.3-2.1,3.8-2.8s3.1-1,4.9-1
	c2.4,0,4.4,0.4,6.1,1.3c1.7,0.9,3,2.1,3.9,3.6c0.9,1.6,1.5,3.3,1.7,5.3h-6c-0.1-1.2-0.3-2.2-0.7-3c-0.4-0.8-1-1.4-1.8-1.9
	c-0.8-0.4-1.9-0.6-3.2-0.6c-1,0-1.9,0.2-2.6,0.5c-0.8,0.4-1.4,0.9-1.9,1.7s-0.9,1.7-1.1,2.9c-0.2,1.1-0.4,2.5-0.4,4v2.1
	c0,1.5,0.1,2.8,0.3,4c0.2,1.1,0.6,2.1,1,2.9c0.5,0.8,1.1,1.4,1.8,1.8c0.8,0.4,1.7,0.6,2.7,0.6c1.2,0,2.3-0.2,3.1-0.6
	c0.8-0.4,1.4-1,1.9-1.8c0.4-0.8,0.7-1.8,0.8-2.9h6c-0.1,1.9-0.7,3.7-1.6,5.2c-1,1.5-2.3,2.7-4,3.5c-1.7,0.9-3.7,1.3-6.1,1.3
	c-1.9,0-3.5-0.3-5-1c-1.5-0.6-2.7-1.6-3.8-2.8c-1-1.2-1.8-2.7-2.4-4.4c-0.6-1.7-0.8-3.6-0.8-5.8v-1.9H273.4z M259.9,215.7
	c-0.1-0.4-0.4-0.8-0.8-1.1c-0.4-0.4-1-0.7-1.7-1.1c-0.7-0.3-1.7-0.7-2.9-1.1c-1.3-0.4-2.6-0.9-3.7-1.4c-1.2-0.5-2.2-1.2-3.1-1.9
	c-0.9-0.7-1.6-1.6-2.1-2.5c-0.5-0.9-0.8-2-0.8-3.3c0-1.2,0.3-2.3,0.8-3.3s1.3-1.8,2.2-2.6c0.9-0.7,2.1-1.3,3.4-1.7
	c1.3-0.4,2.8-0.6,4.3-0.6c2.1,0,4,0.4,5.6,1.2s2.8,1.8,3.7,3.2c0.9,1.3,1.3,2.9,1.3,4.6h-5.9c0-0.9-0.2-1.6-0.5-2.2
	c-0.3-0.7-0.9-1.2-1.6-1.5c-0.7-0.4-1.6-0.6-2.7-0.6c-1,0-1.9,0.2-2.6,0.5s-1.2,0.7-1.5,1.3c-0.4,0.5-0.5,1.1-0.5,1.8
	c0,0.5,0.1,0.9,0.4,1.3c0.3,0.4,0.6,0.8,1.1,1.1c0.5,0.4,1.1,0.7,1.8,1s1.6,0.6,2.5,0.9c1.6,0.5,3,1,4.2,1.6s2.2,1.3,3,2
	c0.8,0.8,1.4,1.6,1.8,2.5s0.6,2,0.6,3.2c0,1.3-0.3,2.4-0.7,3.4c-0.5,1-1.2,1.8-2.1,2.5c-0.9,0.7-2,1.2-3.3,1.6
	c-1.3,0.4-2.7,0.5-4.3,0.5c-1.4,0-2.8-0.2-4.3-0.6c-1.4-0.4-2.7-1-3.8-1.7c-1.1-0.8-2-1.8-2.7-3c-0.7-1.2-1-2.6-1-4.3h6
	c0,0.9,0.1,1.7,0.4,2.3c0.3,0.6,0.7,1.1,1.2,1.5c0.5,0.4,1.1,0.7,1.8,0.8c0.7,0.2,1.5,0.3,2.3,0.3c1,0,1.9-0.2,2.6-0.4
	c0.7-0.3,1.2-0.7,1.5-1.2s0.5-1.1,0.5-1.8C260.2,216.5,260.1,216.1,259.9,215.7z"/>
<path class="st1" d="M337.9,332.2h-8v8h8V332.2z"/>
<path class="st1" d="M354.4,373.3h-8v8h8V373.3z"/>
<path class="st1" d="M387.3,414.5h-8v8h8V414.5z"/>
<path class="st1" d="M387.6,398.1v7.9v0.3v8h8h0.2h8v-8V406v-7.9h-8h-0.2H387.6z"/>
<path class="st1" d="M346.4,315.4h8v-7.9h-8h-0.3h-7.9h-0.3h-8v7.9v0.3v8h8v-8.3h8.2H346.4z"/>
<path class="st1" d="M371.1,447.5h-8.2v8h7.9h0.3h8v-8v-0.3v-8h-8V447.5z"/>
<path class="st1" d="M346.1,348.6v-0.2v-8h-7.9v8v0.2v8h7.9V348.6z"/>
<path class="st1" d="M321.4,389.8h-8v8h8V389.8z"/>
<path class="st1" d="M370.9,381.6h-8v8h8V381.6z"/>
<path class="st1" d="M296.7,447.2h-41.2v41.2h41.2V447.2z M288.5,480.2h-24.7v-24.7h24.7V480.2z"/>
<path class="st1" d="M305,365.1h-8v8h8V365.1z"/>
<path class="st1" d="M370.9,307.5h-8v8h8V307.5z"/>
<path class="st1" d="M255.5,340.2h41.2V299h-41.2V340.2z M263.8,307.2h24.7v24.7h-24.7V307.2z"/>
<path class="st1" d="M280.3,365.1h-8v8h8h0.2h8v-8h-8H280.3z"/>
<path class="st1" d="M263.8,373.3h-8v8v0.3v8h8v-8.3h8.2v-8h-8H263.8z"/>
<path class="st1" d="M329.7,340.4h-8v8h8V340.4z"/>
<path class="st1" d="M403.8,340.2H445V299h-41.2V340.2z M412,307.2h24.7v24.7H412V307.2z"/>
<path class="st1" d="M420.5,472.2h-8.2v8h8h0.2h8v-8v-0.3v-8h-8V472.2z"/>
<path class="st1" d="M436.7,447.5h-8v8h8V447.5z"/>
<path class="st1" d="M428.5,422.8h-8v8h8V422.8z"/>
<path class="st1" d="M428.7,488.4h8h0.3h8v-8v-0.2v-8v-0.3v-8h-8v8v0.3v8.2h-8.3V488.4z"/>
<path class="st1" d="M436.7,373.3v-0.2v-8h-8h-0.2h-8h-0.2h-8v8h8h0.2h8.2v8.5h-8.2v8v0.2v8h8v-8.2h8.2h0.3h8v-8h-8.3V373.3z"/>
<path class="st1" d="M271.4,252c-32.7,0-59.2,26.5-59.2,59.2v206c0,10.1,8.2,18.4,18.4,18.4h239.9c10.1,0,18.4-8.2,18.4-18.4V252
	H271.4z M395.6,290.7h57.7v57.6h-57.7V290.7z M247.3,290.7H305v57.6h-57.7V290.7z M305,496.6h-57.7V439H305V496.6z M321.7,496.9
	h-8.5v-8.5h8.5V496.9z M453.5,398.1h-8.2v8h8.2v16.7H445v-8.2h-8.2v-16.5h-8v24.5h8.2v16.5h16.5v8.5h-8.2v16.2h8.2V497h-49.7v-8.2
	h-24.5v8.2h-8.5v-8.2h-8.2v-8.5h16.5v-8h-8.2v-8.2h-8.2v-8.2h-8v8.2h-8.5v-8.5v-8.2h8.2v-8h-8.2v-8.2H338V423h-8v16.2h8.2v16.7h-8.5
	v-8.2h-8v16.2h8.2v8.2h24.7v8.5h-8.2v16.5h-16.7v-8.5h8.2v-8h-24.7v-33.2h8.2v-8h-8.2v-8.5h8.2v-24.5h-8v8.2h-16.5v8h8.2v8.5h-25
	v-8.2h-16.5v-16.7h8.5v8.2h16.2v-8.2H313v-8h-16.5v-8.5H313v-8.2h8.2v-8h-16v8.2h-32.9v8h16.5v8.5h-32.9v32.9h-8.5v-74.4h8.5v8.2h8
	v-8.2h41.4v8.2h16.5v8.2h24.5v-8h-8.2v-8.2h-24.9v-49.7h16.5v-8h-8.2v-8.5h8.5v8.2h8v-8.2h41.4v8.2h8.2v8.5h-8.2v16.2h8.2v8.5h-16.7
	v-8.2h-8.2v-8.2h-8v41.2h-8.2v8h33v8.2H404v-8h-8.2v-8.5h41.4v8.2h8.2v8.2h8.2L453.5,398.1z M387.6,340.2v16.7h-8.5v-16.7H387.6z
	 M371.1,340.2v16.7h-8.5v-16.7H371.1z"/>
<path class="st1" d="M420.3,406.3V406v-7.9h-8v7.9v0.3v8h8V406.3z"/>
<path class="st1" d="M395.6,381.6h-8h-0.3h-8v8.2h-8.2v8.3h-8.5v-8.3h-8v8.3h-8.2h-0.3h-8.2v-8.3h-8v8v0.3v7.9v0.3v8h8V406h8.2h0.3
	h8.2v8.5h-8.2v8v0.3v7.9h8h0.2h8h0.3h7.9v-7.9h-8.2v-8.5h8.2V406h8.3v-8.2h8.2v-8.2h8.3V381.6z"/>
<path class="st1" d="M395.6,472.2h-8v8h8h0.2h8v-8h-8H395.6z"/>
<path class="st1" d="M412,463.9h-8v8h8V463.9z"/>
<path class="st1" d="M412,389.8h-8v8h8V389.8z"/>
<path class="st1" d="M403.8,431h-8h-0.3h-8v8v0.3v8v0.2v8h8h0.3h8h0.3h8v-8v-0.2v-8V439v-8h-8H403.8z M404,447.5h-8.5V439h8.5V447.5
	z"/>
<path class="st0" d="M362.6,348.6v0.3v8.2h8.5v-8.2v-0.3v-8.2h-8.5V348.6z"/>
<path class="st0" d="M379.1,348.6v0.3v8.2h8.5v-8.2v-0.3v-8.2h-8.5V348.6z"/>
<path class="st0" d="M445.2,373.3v-8.2H437v-8.2h-8.2h-0.2h-8h-0.3h-8H412h-8h-0.2h-8.2v8.5h8.2v8h-8h-0.3h-8h-0.2h-8v-8.2h-8.2
	h-0.3h-8h-0.2h-8h-0.3h-8v-8h8.2V349v-0.3v-8v-0.2v-8v-0.3v-8V324v-8h8v8.2h8.2v8.2h8.2h0.3h8.2v-8.5h-8.2v-8v-0.3v-8h8.2v-8.5h-8.2
	v-8.2H371h-0.3h-8h-0.2h-8h-0.3h-8h-0.3h-8.2v8.2h-8v-8.2h-8.5v8.5h8.2v8h-8h-0.2H313v8.2v0.3v8v0.2v8v0.3v8v0.2v8v0.3v8.2h8.2h0.2
	h8h0.3h8v8.2h8.2v8h-8h-0.3h-8h-0.3h-8v-8.2h-8.2h-0.3h-8v-8.2h-8.2h-0.3h-8H288h-8h-0.2h-8h-0.3h-8.2v8.2h-8v-8.2h-8.5v8.2v0.2v8
	v0.3v8v0.3v8v0.3v8v0.3v8v0.2v8v0.3v8v0.3v8.2h8.5v-8.2V423v-8v-0.3v-8v-0.2v-8h8h0.3h8h0.3h8h0.2h8.2V390h-8.2h-0.2h-8v-8h8h0.2h8
	h0.3h8h0.3h8.2v-8.2h8h0.3h8v8H313v8.2h-8h-0.3h-8.2v8.5h8.2h0.3h8v8h-8h-0.3h-8h-0.3h-8.2v8.2h-8H280h-8v-8.2h-8.5v8.2v0.3v8.2h8.2
	h0.3h8v8.2h8.2h0.3h8h0.3h8.2v-8.5h-8.2v-8h8h0.3h8.2v-8.2h8v8v0.3v8v0.3v8h-8.2v8.5h8.2v8h-8.2v8.2v0.3v8v0.3v8v0.2v8.2h8.2h0.2h8
	h0.3h8v8h-8.2v8.5h8.2h0.3h8.2v-8.2v-0.2v-8h8.2v-8.5h-8.2H346h-8h-0.3h-8v-8.2h-8.2v-8v-0.3v-8h8v8.2h8.5v-8.2v-0.2v-8.2h-8.2v-8
	v-0.3v-8h8v8.2h8.2v8.2h8.2v8H346v8.2v8.5h8.5v-8.2h8v8.2h8.2v8.2h8.2v8h-8h-0.3h-8.2v8.5h8.2v8.2h8.5v-8.2h8h0.2h8h0.3h8v8.2h8.2
	h0.3h8h0.3h8h0.2h8h0.3h8h0.3h8.2v-8.2V489v-8v-0.3v-8v-0.2v-8.2h-8.2v-8V456v-8h8.2v-8.5h-8.2h-0.3h-8v-8v-0.3V423h-8.2v-8v-0.3v-8
	v-0.2v-8h8v8v0.2v8.2h8.2v8.2h8.5v-8.2v-0.3v-8.2h-8.2v-8h8.2v-8.2v-0.3v-8v-0.3v-8.2h-8.2V373.3z M255.8,389.8v-8v-0.3v-8h8h0.3h8
	v8h-8.2v8.2h-8.1V389.8z M280.5,373.3h-0.2h-8v-8h8h0.2h8v8H280.5z M297,365.4h8v8h-8V365.4z M412,398.1h-8v-8h8V398.1z
	 M436.7,455.7h-8v-8h8V455.7z M428.5,472.4v8h-8h-0.3h-8v-8h8.2v-8.2h8v8L428.5,472.4z M412,472.2h-8v-8h8V472.2z M387.3,414.8v8h-8
	v-8H387.3z M387.6,447.5v-8v-0.3v-8h8h0.3h8h0.3h8v8v0.3v8v0.2v8h-8h-0.3h-8h-0.3h-8v-8V447.5z M420.5,431v-8h8v8H420.5z
	 M403.8,406.5v8h-8h-0.3h-8v-8v-0.2v-8h8h0.3h8v8V406.5z M370.8,389.8h-8v-8h8V389.8z M354.4,381.6h-8v-8h8V381.6z M346.1,348.9v8
	h-8v-8v-0.3v-8h8v8V348.9z M337.9,340.4h-8v-8h8V340.4z M362.9,315.7v-8h8v8H362.9z M338.2,307.7h8h0.3h8v8h-8h-0.3H338v8.2h-8v-8
	v-0.3v-8h8L338.2,307.7L338.2,307.7z M321.7,348.6v-8h8v8H321.7z M313.4,398.1v-8h8v8H313.4z M346.4,431v-8v-0.3v-8h8.2v-8.5h-8.2
	h-0.3h-8.2v8.2h-8v-8v-0.2v-8v-0.3v-8h8v8.2h8.2h0.3h8.2v-8.2h8v8.2h8.5v-8.2h8.2v-8.2h8h0.2h8v8h-8.2v8.2h-8.2v8.2h-8.2v8.2h-8.2
	v8.5h8.2v8h-8h-0.2h-8h-0.3h-8V431z M362.9,455.7v-8h8.2v-8.2h8v8v0.2v8h-8h-0.3H362.9z M395.8,480.4h-0.3h-8v-8h8h0.3h8v8H395.8z
	 M445,472.4v8v0.3v8h-8h-0.3h-8v-8h8.2v-8.2v-0.2v-8h8L445,472.4z M420.3,406.5v8h-8v-8v-0.2v-8h8v8V406.5z M428.5,389.8v8.2h-8v-8
	v-0.3v-8h8.2v-8.5h-8.2h-0.3h-8v-8h8h0.3h8h0.2h8v8v0.3v8.2h8.2v8h-8h-0.3h-8.1V389.8z"/>
<path class="st0" d="M404.1,439.2h-8.5v8.5h8.5V439.2z"/>
<path class="st0" d="M321.7,488.7h-8.5v8.5h8.5V488.7z"/>
<path class="st0" d="M305,291h-57.7v57.6H305V291z M296.7,340.4h-41.2v-41.2h41.2V340.4z"/>
<path class="st0" d="M453.2,291h-57.6v57.6h57.6V291z M445,340.4h-41.2v-41.2H445V340.4z"/>
<path class="st0" d="M247.3,496.9H305v-57.6h-57.7V496.9z M255.5,447.5h41.2v41.2h-41.2V447.5z"/>
<path class="st0" d="M288.5,307.5h-24.7v24.7h24.7V307.5z"/>
<path class="st0" d="M436.7,307.5H412v24.7h24.7V307.5z"/>
<path class="st0" d="M288.5,455.7h-24.7v24.7h24.7V455.7z"/>
<path class="st1" d="M456,215.8l0.7-20.2h-6.2l0.7,20.2H456z"/>
<path class="st1" d="M456,219.8c-0.6-0.6-1.4-0.9-2.3-0.9c-1,0-1.8,0.3-2.4,0.9c-0.6,0.5-0.9,1.3-0.9,2.1c0,0.8,0.3,1.5,0.9,2.1
	c0.6,0.6,1.4,0.9,2.4,0.9s1.8-0.3,2.3-0.9c0.6-0.6,0.9-1.3,0.9-2.1C456.8,221.2,456.5,220.5,456,219.8z"/>
<path class="st1" d="M429.5,212H441v-4.5h-11.5v-7.2h13.4v-4.7h-13.4h-2h-4v29h4h2H443V220h-13.5V212z"/>
<path class="st1" d="M409.1,195.6h-2.7l-7.5,21.2l-7.4-21.2h-2.8h-2.3h-2.7v29h5.9v-8.3l-0.6-13.5l7.9,21.8h4.1l7.8-21.8l-0.6,13.5
	v8.3h6v-29h-2.8H409.1z"/>
<path class="st1" d="M354.2,215.1l-11.7-19.5h-5.9v29h5.9v-19.4l11.7,19.4h6v-29h-6V215.1z"/>
<path class="st1" d="M317.4,195.6h-2.6h-1.5l-10.8,29h6.4l2-6.1h10.4l2,6.1h6.4l-10.8-29H317.4z M312.5,213.8l3.7-11.2l3.7,11.2
	H312.5z"/>
<path class="st1" d="M279.8,205.1c0.3-1.2,0.6-2.1,1.1-2.9c0.5-0.8,1.1-1.3,1.9-1.7c0.7-0.4,1.6-0.5,2.6-0.5c1.3,0,2.4,0.2,3.2,0.6
	c0.8,0.4,1.4,1,1.8,1.9c0.4,0.8,0.6,1.8,0.7,3h6c-0.2-2-0.7-3.7-1.7-5.3c-0.9-1.5-2.2-2.7-3.9-3.6c-1.7-0.9-3.7-1.3-6.1-1.3
	c-1.8,0-3.5,0.3-4.9,1c-1.5,0.6-2.8,1.6-3.8,2.8c-1.1,1.2-1.9,2.7-2.4,4.4c-0.6,1.7-0.8,3.6-0.8,5.8v2c0,2.1,0.3,4,0.8,5.8
	s1.3,3.2,2.4,4.4c1,1.2,2.3,2.1,3.8,2.8c1.5,0.6,3.1,1,5,1c2.4,0,4.4-0.4,6.1-1.3c1.7-0.9,3-2,4-3.5s1.5-3.3,1.6-5.2h-6
	c-0.1,1.2-0.3,2.1-0.8,2.9c-0.4,0.8-1.1,1.4-1.9,1.8c-0.8,0.4-1.8,0.6-3.1,0.6c-1.1,0-2-0.2-2.7-0.6c-0.8-0.4-1.4-1-1.8-1.8
	c-0.5-0.8-0.8-1.7-1-2.9c-0.2-1.1-0.3-2.5-0.3-4v-2.1C279.5,207.6,279.6,206.2,279.8,205.1z"/>
<path class="st1" d="M263.7,211.3c-0.8-0.7-1.8-1.4-3-2c-1.2-0.6-2.6-1.1-4.2-1.6c-0.9-0.3-1.8-0.6-2.5-0.9c-0.7-0.3-1.3-0.6-1.8-1
	c-0.5-0.3-0.9-0.7-1.1-1.1c-0.2-0.4-0.4-0.9-0.4-1.3c0-0.6,0.2-1.2,0.5-1.8c0.3-0.5,0.9-1,1.5-1.3c0.7-0.3,1.6-0.5,2.6-0.5
	c1.1,0,2,0.2,2.7,0.5c0.7,0.4,1.3,0.9,1.6,1.5c0.4,0.6,0.5,1.4,0.5,2.2h5.9c0-1.7-0.4-3.3-1.3-4.6c-0.9-1.3-2.1-2.4-3.7-3.2
	c-1.6-0.8-3.5-1.2-5.6-1.2c-1.6,0-3,0.2-4.3,0.6c-1.3,0.4-2.4,0.9-3.4,1.7c-1,0.7-1.7,1.5-2.2,2.5s-0.8,2.1-0.8,3.3
	c0,1.3,0.3,2.4,0.8,3.3c0.5,0.9,1.2,1.8,2.1,2.5c0.9,0.7,1.9,1.3,3.1,1.9c1.2,0.5,2.4,1,3.7,1.4c1.2,0.4,2.1,0.7,2.9,1.1
	c0.7,0.3,1.3,0.7,1.7,1.1c0.4,0.3,0.7,0.7,0.8,1.1c0.2,0.4,0.2,0.9,0.2,1.4c0,0.6-0.2,1.2-0.5,1.8c-0.3,0.5-0.8,0.9-1.5,1.2
	c-0.7,0.3-1.5,0.4-2.6,0.4c-0.9,0-1.6-0.1-2.4-0.3c-0.7-0.2-1.3-0.5-1.8-0.8c-0.5-0.4-0.9-0.9-1.2-1.5c-0.3-0.6-0.4-1.4-0.4-2.3h-6
	c0,1.6,0.3,3,1,4.3c0.7,1.2,1.6,2.2,2.7,3c1.1,0.8,2.4,1.3,3.8,1.7c1.4,0.4,2.8,0.6,4.3,0.6c1.6,0,3-0.2,4.3-0.5
	c1.3-0.4,2.4-0.9,3.3-1.6c0.9-0.7,1.6-1.5,2.1-2.5s0.7-2.1,0.7-3.4c0-1.2-0.2-2.3-0.6-3.2C264.8,212.9,264.5,212,263.7,211.3z"/>
</svg>