<svg xmlns="http://www.w3.org/2000/svg" width="1000" height="1300" viewBox="0 0 1000 1300"><defs></defs><path fill="#000000" d="M933.2,1287.74h0a15.26,15.26,0,0,1-12.73-6.82L885.1,1227.7l-35.38,53.22a15.29,15.29,0,0,1-25.46,0l-35.37-53.22-35.37,53.22a15.29,15.29,0,0,1-25.46,0l-35.38-53.22-35.37,53.22a15.29,15.29,0,0,1-25.46,0l-35.38-53.22-35.37,53.22a15.29,15.29,0,0,1-25.46,0l-35.37-53.22-35.38,53.22a15.29,15.29,0,0,1-25.46,0l-35.37-53.22-35.37,53.22a15.28,15.28,0,0,1-12.73,6.82h0a15.24,15.24,0,0,1-12.72-6.82l-35.38-53.22-35.37,53.22a15.29,15.29,0,0,1-25.46,0l-35.38-53.22-35.37,53.22a15.29,15.29,0,0,1-25.46,0l-35.37-53.22-35.38,53.22a15.29,15.29,0,0,1-25.46,0l-42.93-64.59a10,10,0,0,1-1.67-5.54V59.43C10,32.18,31.71,10,58.4,10H941.6C968.29,10,990,32.18,990,59.43V1211.6a10,10,0,0,1-1.67,5.54l-42.4,63.78A15.26,15.26,0,0,1,933.2,1287.74Zm-861.94-17.9h0Zm621.42-65.94a15.26,15.26,0,0,1,12.73,6.82l35.38,53.22,35.37-53.22a15.29,15.29,0,0,1,25.46,0L837,1263.94l35.38-53.22a15.29,15.29,0,0,1,25.46,0l35.37,53.22,36.8-55.36V59.43C970,43.2,957.26,30,941.6,30H58.4C42.74,30,30,43.2,30,59.43V1207.77l37.33,56.17,35.38-53.22a15.29,15.29,0,0,1,25.46,0l35.37,53.22,35.38-53.22a15.25,15.25,0,0,1,12.72-6.82h0a15.24,15.24,0,0,1,12.72,6.82l35.38,53.22,35.37-53.22a15.29,15.29,0,0,1,25.46,0L356,1263.94l35.37-53.22a15.29,15.29,0,0,1,25.46,0l35.37,53.22,35.38-53.22a15.29,15.29,0,0,1,25.46,0l35.37,53.22,35.38-53.22a15.25,15.25,0,0,1,12.72-6.82h0a15.24,15.24,0,0,1,12.72,6.82l35.38,53.22L680,1210.72A15.26,15.26,0,0,1,692.68,1203.9Z"/><text	x="50%" y="1045" fill="#000000" dominant-baseline="middle" text-anchor="middle" font-family="sans-serif" font-size="90" font-weight="600">Scan me!</text></svg>



