<svg xmlns="http://www.w3.org/2000/svg" width="1000" height="1300" viewBox="0 0 1000 1300"><defs></defs><path fill="#000000" d="M805.5,212.31c5.51,0,10,4.49,10,10v621h-631v-621c0-5.51,4.49-10,10-10H805.5 M805.5,182.31h-611 c-22.09,0-40,17.91-40,40v651h691v-651C845.5,200.22,827.59,182.31,805.5,182.31L805.5,182.31z" />
			<path fill="#595959" d="M940.5,870h-881c-7.46,0-13.5-6.04-13.5-13.5l0,0c0-7.46,6.04-13.5,13.5-13.5h881c7.46,0,13.5,6.04,13.5,13.5 l0,0C954,863.96,947.96,870,940.5,870z" />
			<path fill="#000000" d="M809,962H191c-50.81,0-92-41.19-92-92v0h802v0C901,920.81,859.81,962,809,962z" />
			<path fill="#000000" d="M768.77,971.07c-14.11-16.13-35.01-19.44-54.67-9.2c-9.98-9.67-28.38-9.98-44.13-4.35c-5.68,2.03-75.15,29.56-97.52,38.43 c-8.35-14.2-25.85-19.47-32.86-21.57c-11.39-3.42-166.66-31.01-225.5-18.17c-20.04,4.37-173.71,61.92-180.24,64.37 c-4.65,1.74-7.01,6.93-5.27,11.59c1.75,4.66,6.94,7.01,11.59,5.27c44.16-16.55,162.17-60.23,177.76-63.63 c51.68-11.28,201.93,13.46,216.5,17.83c17.97,5.39,25.09,12.04,24.6,22.97c-0.57,12.63-7.05,18.07-25.67,21.56 c-12.73,2.39-120.55,10.82-161.02,13.87c-4.96,0.37-8.67,4.69-8.3,9.65c0.36,4.73,4.3,8.33,8.96,8.32c0.23,0,0.46-0.01,0.69-0.03 c2.63-0.2,31.33-2.36,64.04-4.99c8.42,4.51,41.14,22,55.26,29.06c21.87,10.93,36.25,2.87,54.47-7.34c2.17-1.22,4.46-2.5,6.87-3.81 c11.02-6.01,147.26-89.29,163.74-100.45c5.16-3.49,23.08-13.64,37.18,2.48c3.41,3.9,5.03,9.02,4.55,14.41 c-0.56,6.33-3.9,12.23-9.4,16.63c-6.76,5.41-171.11,134.74-191.44,148.59c-35.01,23.84-77.4,30.45-125.98,19.65 c-10.79-2.4-137.83-38.25-203.5-56.87c-1.85-0.53-3.83-0.44-5.64,0.24l-45,17c-4.65,1.76-7,6.95-5.24,11.6 c1.76,4.65,6.95,7,11.6,5.24l42.22-15.95c24.7,7,188.44,53.38,201.65,56.32c16.47,3.66,32.32,5.49,47.52,5.49 c34.3,0,65.28-9.3,92.5-27.83c21.31-14.51,186.19-144.32,192.56-149.41c9.37-7.5,15.08-17.83,16.08-29.09 C778.62,988.6,775.45,978.71,768.77,971.07z M545.69,1065.1c-2.47,1.35-4.82,2.66-7.05,3.91c-18.45,10.34-24.89,13.3-37.62,6.94 c-7-3.5-18.97-9.78-30.12-15.68c30.98-2.6,59.01-5.16,65.76-6.42c10.64-2,38.92-7.3,40.33-38.44c0.03-0.65,0.03-1.28,0.03-1.91 c34.65-13.74,94.17-37.3,99.01-39.03c7.65-2.73,15.7-3.29,21-1.9C660.36,995.71,555.27,1059.87,545.69,1065.1z" />
			<polygon fill="#595959" points="0,1300 17.07,1300 195,1188 126,997 0,1032.71" />
			<text fill="#000000" font-size="90" x="50%" y="98" dominant-baseline="middle" text-anchor="middle" font-family="sans-serif">Scan me!</text></svg>

