<svg xmlns="http://www.w3.org/2000/svg" width="1000" height="1300" viewBox="0 0 1000 1300"><defs></defs><path fill="#000000" d="M960,0H40A40,40,0,0,0,0,40V1260a39.85,39.85,0,0,0,10.39,26.9c.86.94,1.77,1.85,2.71,2.71A39.85,39.85,0,0,0,40,1300H960a39.85,39.85,0,0,0,26.9-10.39c.94-.86,1.85-1.77,2.71-2.71A39.85,39.85,0,0,0,1000,1260V40A40,40,0,0,0,960,0ZM557.34,1040l-28.67-38L500,964l-28.67,38-28.67,38H40V40H960V1040Z"/><text	x="50%" y="1175" fill="#ffffff" dominant-baseline="middle" text-anchor="middle" font-family="sans-serif" font-size="90" font-weight="600">Scan me!</text></svg>

