<svg xmlns="http://www.w3.org/2000/svg" width="1000" height="1300" viewBox="0 0 1000 1300"><defs></defs><path fill="#595959" d="M398.39,467.81c-9.28,0-17.59-6.49-19.56-15.93L308.98,116.3c-3.55-15.44-15.08-28.1-30.13-33.06 c-0.04-0.01-0.07-0.02-0.11-0.04L148.13,39.32c-10.47-3.52-16.11-14.86-12.59-25.33c3.52-10.47,14.86-16.1,25.33-12.59 l130.55,43.86c28.33,9.36,50.03,33.25,56.61,62.35c0.03,0.11,0.05,0.23,0.07,0.34l69.88,335.77c2.25,10.81-4.69,21.41-15.5,23.66 C401.11,467.67,399.74,467.81,398.39,467.81z" />
			<path fill="#000000" d="M53.13,219.67L53.13,219.67l447.39,0l446.45,0c5.55,0.39,8.58,3.06,9.65,4.22c1.18,1.29,1.78,2.58,1.78,3.85 c-11.04,176.05-23.99,349.56-38.48,515.72l-0.01,0.09l-0.01,0.09c-1.72,20.8-3.49,41.83-5.2,62.17 c-12.75,151.48-24.79,294.57-24.49,444.19c-0.07,5.98-3.56,9.96-5.87,9.99h-766.3c-4.13-0.52-10.34-7.27-10.63-15.86l-0.01-0.32 l-0.02-0.32c-3.06-61.22-5.72-120.65-8.29-178.13c-5.16-115.39-10.03-224.39-17.54-335.19c-5.94-93.92-13.91-190.38-21.63-283.67 c-5.89-71.2-11.97-144.81-17.22-217.92c0.2-2.75,1.54-4.66,2.68-5.81C46.53,221.62,49.07,219.68,53.13,219.67 M947.98,179.67 c-149.15,0-298.31,0-447.46,0s-298.31,0-447.46,0c-28.03,0.05-50.57,22.33-50.38,50C14.89,400.1,31.2,567.59,41.64,732.79 c11.26,166.06,16.64,329.85,25.79,512.7c0.97,28.81,23.14,53.5,49.43,54.51c255.87,0,511.73,0,767.6,0 c25.35-0.1,45.61-22.47,45.75-49.89c-0.34-168.56,15.48-332.56,29.55-503.17c14.8-169.67,27.85-345.95,38.59-517.27 C999.51,203.23,977.04,180.83,947.98,179.67L947.98,179.67z" />
			<path fill="#000000" d="M49.37,336.21l34.81,842.57c0,65.88,13.08,96.26,44.42,96.26h745.77c31.34,0,43.75-38.42,43.75-75.9l33.87-833.73 c0,0-84.54-21.01-202.49-12.66c-98.4,6.97-285.78,29.91-384.42,28.61C236.09,379.66,49.37,336.21,49.37,336.21z" />
			<path fill="#000000" d="M828.65,285.6H674.37c-8.28,0-15-6.72-15-15s6.72-15,15-15h154.29c8.28,0,15,6.72,15,15S836.94,285.6,828.65,285.6z" />
			<path fill="#000000" d="M885.64,285.59c-0.49,0-0.98-0.02-1.47-0.07s-0.98-0.12-1.46-0.22c-0.48-0.1-0.96-0.22-1.42-0.36 c-0.47-0.14-0.93-0.31-1.39-0.49c-0.45-0.19-0.89-0.4-1.32-0.63c-0.43-0.23-0.86-0.48-1.27-0.75c-0.4-0.28-0.8-0.57-1.18-0.88 c-0.38-0.31-0.75-0.64-1.1-0.99c-0.34-0.35-0.67-0.71-0.99-1.09c-0.31-0.38-0.6-0.78-0.87-1.19c-0.27-0.4-0.52-0.83-0.75-1.26 c-0.23-0.43-0.44-0.88-0.63-1.33c-0.19-0.45-0.35-0.91-0.5-1.38c-0.14-0.47-0.26-0.95-0.36-1.42c-0.09-0.48-0.17-0.97-0.21-1.46 c-0.05-0.49-0.08-0.99-0.08-1.47c0-0.49,0.03-0.99,0.08-1.48c0.04-0.49,0.12-0.97,0.21-1.46c0.1-0.47,0.22-0.95,0.36-1.42 c0.15-0.47,0.31-0.93,0.5-1.38c0.19-0.45,0.4-0.9,0.63-1.33c0.23-0.43,0.48-0.85,0.75-1.26c0.27-0.41,0.56-0.81,0.87-1.18 c0.32-0.39,0.65-0.75,0.99-1.1c2.8-2.79,6.66-4.4,10.61-4.4s7.82,1.61,10.61,4.4c0.34,0.35,0.68,0.71,0.99,1.1 c0.31,0.37,0.6,0.77,0.87,1.18c0.27,0.41,0.53,0.83,0.75,1.26c0.23,0.43,0.44,0.88,0.63,1.33c0.19,0.45,0.36,0.91,0.5,1.38 c0.14,0.47,0.26,0.95,0.36,1.42c0.09,0.49,0.17,0.97,0.22,1.46c0.05,0.49,0.07,0.99,0.07,1.48c0,0.48-0.02,0.98-0.07,1.47 c-0.05,0.49-0.13,0.98-0.22,1.46c-0.1,0.47-0.22,0.95-0.36,1.42c-0.14,0.47-0.31,0.93-0.5,1.38c-0.19,0.45-0.4,0.9-0.63,1.33 c-0.22,0.43-0.48,0.86-0.75,1.26c-0.27,0.41-0.56,0.81-0.87,1.19c-0.31,0.38-0.65,0.74-0.99,1.09c-0.35,0.35-0.72,0.68-1.1,0.99 c-0.38,0.31-0.77,0.6-1.18,0.88c-0.41,0.27-0.83,0.52-1.26,0.75c-0.44,0.23-0.88,0.44-1.33,0.63c-0.45,0.18-0.92,0.35-1.38,0.49 c-0.47,0.14-0.95,0.26-1.43,0.36c-0.48,0.1-0.97,0.17-1.45,0.22C886.63,285.57,886.13,285.59,885.64,285.59z" />
			<text fill="#ffffff" font-size="90" x="50%" y="1204.6" dominant-baseline="middle" text-anchor="middle" font-family="sans-serif">Scan me!</text></svg>

