<svg xmlns="http://www.w3.org/2000/svg" width="1000" height="990" viewBox="0 0 1000 990"><defs></defs><path fill="#000000" d="M419.69,351.56v-78.1h-310.9c-13.8,0-26.37,8.67-31.27,21.56l-20.88,54.9H27.7c-15.27,0-27.7,12.43-27.7,27.7v39.07 c0,15.27,12.43,27.7,27.7,27.7h13.76L80.08,990h343.54L385,444.38h25.3c15.27,0,27.7-12.43,27.7-27.7v-39.07 C438,365.64,430.36,355.42,419.69,351.56z M96.85,972l-37.3-527H367l37.3,527H96.85z M94.34,301.42 c2.27-5.96,8.07-9.96,14.45-9.96h292.9v58.46H75.9L94.34,301.42z M420,416.69c0,5.35-4.35,9.7-9.7,9.7H27.7 c-5.35,0-9.7-4.35-9.7-9.7v-39.07c0-5.35,4.35-9.7,9.7-9.7h22.1H410.3c5.35,0,9.7,4.35,9.7,9.7V416.69z" />
			<polygon fill="#000000" points="428.73,810.69 414.41,609.31 34.28,609.31 48.61,810.69" />
			<path fill="#595959" opacity="0.5" d="M930.91,88.81c-1.02-17.33-14.96-30.89-31.88-30.99c-76.95-0.47-276.25-1.7-295.43-1.81V56c0,0-0.26,0-0.75,0 c-0.48,0-0.75,0-0.75,0v0.01c-19.18,0.12-218.47,1.35-295.43,1.81c-16.92,0.1-30.86,13.65-31.88,30.99l-51.03,866.22 c-1.12,18.96,13.57,34.97,32.08,34.97h346.26h1.49h346.26c18.51,0,33.2-16.01,32.08-34.97L930.91,88.81z" />
			<path fill="#000000" d="M948.91,88.81c-1.02-17.33-14.96-30.89-31.88-30.99c-76.95-0.47-276.25-1.7-295.43-1.81V56c0,0-0.26,0-0.75,0 c-0.48,0-0.75,0-0.75,0v0.01c-19.18,0.12-218.47,1.35-295.43,1.81c-16.92,0.1-30.86,13.65-31.88,30.99l-51.03,866.22 c-1.12,18.96,13.57,34.97,32.08,34.97h346.26h1.49h346.26c18.51,0,33.2-16.01,32.08-34.97L948.91,88.81z" />
			<path fill="#595959" d="M288.32,164.84c2.84,0.75,5.81,1.16,8.88,1.16h649.01c2.47,0,4.87-0.26,7.2-0.76l-4.5-76.43 c-1.02-17.33-14.96-30.89-31.88-30.99c-76.95-0.47-276.25-1.7-295.43-1.81V56c0,0-0.26,0-0.75,0c-0.48,0-0.75,0-0.75,0v0.01 c-19.18,0.12-218.47,1.35-295.43,1.81c-16.92,0.1-30.86,13.65-31.88,30.99L288.32,164.84z" />
			<path fill="#000000" d="M954.56,137H287.15c-15.79,0-28.59-13.14-28.59-29.34l7.12-95.83C266.18,5.15,271.6,0,278.12,0h685.48 c6.52,0,11.94,5.15,12.44,11.82l7.12,95.83C983.15,123.86,970.35,137,954.56,137z" />
			<text fill="#ffffff" font-size="90" x="621" y="889.5" dominant-baseline="middle" text-anchor="middle" font-family="sans-serif">Scan me!</text></svg>

