<svg xmlns="http://www.w3.org/2000/svg" width="1000" height="1300" viewBox="0 0 1000 1300"><defs></defs><path fill="#000000" d="M794.94,490.13c11.66,0,21.15,9.49,21.15,21.15v611.03H183.91V511.28c0-11.66,9.49-21.15,21.15-21.15H794.94 M794.94,459.38H205.06c-28.67,0-51.9,23.24-51.9,51.9v641.78h693.69V511.28C846.84,482.61,823.6,459.38,794.94,459.38 L794.94,459.38z" />
			<path fill="#000000" d="M794.94,1300H205.06c-28.67,0-51.9-23.24-51.9-51.9v-121.5h693.69v121.5C846.84,1276.76,823.6,1300,794.94,1300z" />
			<path fill="#000000" d="M650.77,324.53c-21.58,0-42.95-5.41-61.8-15.65c-6.73-3.66-9.22-12.08-5.57-18.81c3.66-6.73,12.08-9.22,18.81-5.57 c14.8,8.04,31.59,12.29,48.56,12.29c56.19,0,101.9-45.71,101.9-101.9S706.96,93,650.77,93c-12.85,0-25.36,2.35-37.19,7 c-0.04,0.02-0.08,0.03-0.12,0.05l-0.33,0.13c-7.12,2.8-15.16-0.69-17.98-7.81c-0.34-0.86-0.59-1.73-0.75-2.6 c-16.44-36.67-52.63-60.19-93.01-60.19c-41.74,0-78.83,25-94.5,63.69c-2.82,6.97-10.68,10.43-17.73,7.78l-2.11-0.79 c-0.08-0.03-0.17-0.06-0.25-0.1c-11.95-4.75-24.6-7.16-37.6-7.16c-56.19,0-101.9,45.71-101.9,101.9s45.71,101.9,101.9,101.9 c16.97,0,33.76-4.25,48.56-12.29c6.73-3.66,15.15-1.16,18.81,5.57c3.66,6.73,1.16,15.15-5.57,18.81 c-18.85,10.24-40.22,15.65-61.8,15.65c-71.48,0-129.64-58.15-129.64-129.64S277.75,65.26,349.23,65.26 c12.85,0,25.45,1.86,37.58,5.53c9.77-18.46,23.87-34.29,41.29-46.26c21.63-14.85,46.98-22.7,73.31-22.7 c48.24,0,91.78,26.4,114.22,68.25c11.38-3.2,23.15-4.82,35.15-4.82c71.48,0,129.64,58.15,129.64,129.64 S722.25,324.53,650.77,324.53z" />
			<path fill="#000000" d="M668.45,475.68c-8.49,0-15.38-6.88-15.38-15.38V310.67c0-8.49,6.88-15.38,15.38-15.38s15.38,6.88,15.38,15.38V460.3 C683.83,468.79,676.94,475.68,668.45,475.68z" />
			<path fill="#000000" d="M333.47,475.68c-8.49,0-15.38-6.88-15.38-15.38V310.67c0-8.49,6.88-15.38,15.38-15.38s15.38,6.88,15.38,15.38V460.3 C348.84,468.79,341.96,475.68,333.47,475.68z" />
			<path fill="#000000" d="M500,431.4c-5.1,0-9.23-4.13-9.23-9.23v-70.94c0-5.1,4.13-9.23,9.23-9.23s9.23,4.13,9.23,9.23v70.94 C509.23,427.27,505.1,431.4,500,431.4z" />
			<path fill="#000000" d="M424.94,431.4c-5.1,0-9.23-4.13-9.23-9.23v-70.94c0-5.1,4.13-9.23,9.23-9.23s9.23,4.13,9.23,9.23v70.94 C434.16,427.27,430.03,431.4,424.94,431.4z" />
			<path fill="#000000" d="M575.06,431.4c-5.1,0-9.23-4.13-9.23-9.23v-70.94c0-5.1,4.13-9.23,9.23-9.23s9.23,4.13,9.23,9.23v70.94 C584.29,427.27,580.16,431.4,575.06,431.4z" />
			<path fill="#000000" d="M667.49,433.5H332.51c-5.1,0-9.23-4.13-9.23-9.23s4.13-9.23,9.23-9.23h334.98c5.1,0,9.23,4.13,9.23,9.23 S672.59,433.5,667.49,433.5z" />
			<text fill="#ffffff" font-size="90" x="50%" y="1213" dominant-baseline="middle" text-anchor="middle" font-family="sans-serif">Scan me!</text></svg>

