<svg xmlns="http://www.w3.org/2000/svg" width="1000" height="1300" viewBox="0 0 1000 1300"><defs></defs><path fill="#000000" d="M968.07,240.07c0-38.68-31.36-70.04-70.04-70.04H101.97c-38.68,0-70.04,31.36-70.04,70.04L0,1229.1 c0,38.68,31.36,70.04,70.04,70.04h859.91c38.68,0,70.04-31.36,70.04-70.04L968.07,240.07z M73.43,240.07 c0-15.74,12.8-28.54,28.54-28.54h796.05c15.74,0,28.54,12.8,28.54,28.54v824.59H73.43V240.07z" />
			<polygon fill="#000000" points="352.81,0.85 273.07,79.83 273.07,247.82 352.81,247.82" />
			<polygon fill="#000000" points="647.19,0.85 726.93,79.83 726.93,247.82 647.19,247.82" />
			<rect fill="#595959" x="460.13" y="-106.46" transform="matrix(6.123234e-17 -1 1 6.123234e-17 459.272 540.728)" width="79.75" height="294.37" />
			<text fill="#ffffff" font-size="100" x="50%" y="1197" dominant-baseline="middle" text-anchor="middle" font-family="sans-serif" font-weight="600">Scan me!</text></svg>