<svg xmlns="http://www.w3.org/2000/svg" width="1000" height="1300" viewBox="0 0 1000 1300"><defs></defs><path fill="#000000" d="M845.5,483.42v-151.2H469.88c-0.07,0.14-0.13,0.28-0.21,0.42c-6.44,11.55-14.36,21.2-24.61,29.58H815.5v121.1 L845.5,483.42z" />
			<polygon fill="#000000" points="815.52,1065.96 815.52,918.86 845.52,918.76 845.52,1065.96" />
			<path fill="#000000" d="M185.85,1021.88V362.22h110.12c-5.01-6.58-10.1-13.12-14.47-20.14c-2.05-3.29-3.92-6.56-5.63-9.86H155.85v689.65H185.85z" />
			<path fill="#000000" d="M793.9,1193.76H207.45c-28.5,0-51.6-23.1-51.6-51.6V995.57H845.5v146.59C845.5,1170.66,822.4,1193.76,793.9,1193.76z" />
			<path fill="#000000" d="M112.42,789.58c-29.16,0-70.21-26.14-70.21-84.26c0-39.83,21.83-82.36,39.38-116.53c6.76-13.18,13.16-25.63,16.82-35.23 c3.91-10.23-0.88-28.58-6.42-49.83c-9.01-34.54-21.35-81.86-9.78-140.39c10.1-51.08,36.67-89.2,78.98-113.27 c32.21-18.33,64.63-23.15,79.65-25.19c0.51-0.56,1.04-1.15,1.6-1.77c12.59-13.89,42.09-46.42,81.51-75.64 c50.34-37.32,99.13-56.24,145.02-56.24c48.39,0,94.67,15.41,133.85,44.56c29.64,22.05,44.91,44.25,45.55,45.19 c4.66,6.85,2.89,16.18-3.96,20.84c-6.85,4.66-16.18,2.88-20.84-3.96c-0.11-0.16-13.64-19.6-39.56-38.67 c-34.24-25.19-72.94-37.96-115.04-37.96c-62.15,0-130.89,41.06-204.3,122.03c-2.73,3.01-4.53,5-5.88,6.35 c-2.26,2.26-5.17,3.73-8.33,4.22c-1.12,0.17-2.53,0.36-4.18,0.59c-76.33,10.29-121.63,48.9-134.65,114.75 c-10.24,51.79,0.64,93.49,9.38,127c7.12,27.31,12.75,48.89,5.42,68.1c-4.26,11.14-11.01,24.3-18.16,38.23 c-16.07,31.3-36.06,70.25-36.06,102.83c0,41,27.09,54.26,40.21,54.26c19.69,0,34.06-11.33,42.7-33.67 c2.99-7.73,11.67-11.57,19.4-8.58c7.73,2.99,11.57,11.67,8.58,19.4c-7.2,18.63-17.93,32.66-31.89,41.68 C139.92,785.72,126.5,789.58,112.42,789.58z" />
			<path fill="#000000" d="M368.57,407.74c-31.09,0-59.37-12.62-81.79-36.51c-16.56-17.64-24.19-35.46-24.51-36.21 c-3.22-7.63,0.35-16.43,7.98-19.65c7.63-3.23,16.43,0.35,19.65,7.98c0.04,0.09,6.23,14.27,19.39,28.03 c16.72,17.49,36.66,26.35,59.27,26.35c56.2,0,78.15-38.06,78.37-38.44c2.65-4.74,7.66-7.67,13.09-7.67h340.49 c6.13-20.2,6.29-41.46,0.39-62.06c-8.1-28.3-26.74-51.75-52.47-66.04c-25.74-14.28-55.5-17.69-83.8-9.59 c-17.64,5.05-33.84,14.46-46.83,27.23c-5.91,5.81-15.41,5.72-21.21-0.19c-5.81-5.91-5.72-15.41,0.19-21.21 c16.55-16.26,37.17-28.25,59.6-34.67c36-10.31,73.87-5.97,106.61,12.2c32.75,18.17,56.45,48.01,66.76,84.01 c8.67,30.31,7.04,61.75-4.72,90.93c-2.29,5.67-7.79,9.39-13.91,9.39H467.9C456.5,376.53,425.8,407.74,368.57,407.74z" />
			<path fill="#000000" d="M340.45,250.11c-2.2,0-4.4-0.8-6.13-2.41c-3.64-3.39-3.84-9.08-0.46-12.72c33.35-35.84,84.99-78.24,141.54-76.76 c16.58,0.44,32.86,3.54,48.4,9.22c4.67,1.71,7.07,6.88,5.36,11.54c-1.71,4.67-6.87,7.07-11.54,5.36 c-13.7-5.01-28.07-7.75-42.69-8.13c-49.83-1.35-97.07,37.9-127.89,71.02C345.27,249.15,342.87,250.11,340.45,250.11z" />
			<path fill="#000000" d="M925.1,948.81h-94.01v-30h94.01c24.57,0,44.56-19.99,44.56-44.56v-346.3c0-24.57-19.99-44.56-44.56-44.56h-94.01v-30h94.01 c41.11,0,74.56,33.45,74.56,74.56v346.3C999.67,915.36,966.22,948.81,925.1,948.81z" />
			<path fill="#000000" d="M905.92,868.06h-89.83V534.13h89.83c14.36,0,26.04,11.68,26.04,26.04v281.85C931.97,856.38,920.28,868.06,905.92,868.06z M846.09,838.06h55.87V564.13h-55.87V838.06z" />
			<text fill="#ffffff" font-size="90" x="50%" y="1097" dominant-baseline="middle" text-anchor="middle" font-family="sans-serif">Scan me!</text></svg>

