<svg xmlns="http://www.w3.org/2000/svg" width="1000" height="1300" viewBox="0 0 1000 1300"><defs></defs><path fill="#000000" d="M960,0H40A40,40,0,0,0,0,40V960a40,40,0,0,0,40,40H960a40,40,0,0,0,40-40V40A40,40,0,0,0,960,0Zm0,960H40V40H960Z"/><path fill="#000000" d="M960,1040H40a40,40,0,0,0-40,40v180a40,40,0,0,0,40,40H960a40,40,0,0,0,40-40V1080A40,40,0,0,0,960,1040ZM216,1201.86a12,12,0,0,1-12,12H108a12,12,0,0,1-12-12v-61.72a12,12,0,0,1,12-12h96a12,12,0,0,1,12,12Z"/><polygon fill="#000000" points="139.81 1150 139.81 1171 139.81 1192 158 1181.5 176.19 1171 158 1160.5 139.81 1150"/>
			<text x="60%" y="1180" fill="#ffffff" dominant-baseline="middle" text-anchor="middle" font-family="sans-serif" font-size="90" font-weight="600">Scan me!</text></svg>

