<svg xmlns="http://www.w3.org/2000/svg" width="1000" height="1300" viewBox="0 0 1000 1300"><defs></defs><path fill="#000000" d="M925.5,375.16V1225H75.67V375.16H925.5 M930.5,335.16H70.67c-19.33,0-35,15.67-35,35V1230c0,19.33,15.67,35,35,35H930.5 c19.33,0,35-15.67,35-35V370.16C965.5,350.83,949.83,335.16,930.5,335.16L930.5,335.16z" />
			<path fill="#000000" d="M930.5,252.3h-861c-19.33,0-35-15.67-35-35V70.14c0-19.33,15.67-35,35-35h861c19.33,0,35,15.67,35,35V217.3 C965.5,236.63,949.83,252.3,930.5,252.3z" />
			<polygon fill="#000000" points="848.49,249.3 795.17,249.3 741.86,249.3 768.52,284.63 795.17,319.97 821.83,284.63 848.49,249.3" />
			<text fill="#ffffff" font-size="187" x="50%" y="150" dominant-baseline="middle" text-anchor="middle" font-family="sans-serif" font-weight="600">Scan me!</text></svg>

