<svg xmlns="http://www.w3.org/2000/svg" width="1000" height="1300" viewBox="0 0 1000 1300"><defs></defs><path fill="#595959" d="M59.85,179.25l-0.35-38L906.04,0.14c22.17-1.81,40.14,14.53,40.15,36.5l0.32,142.61H59.85z" />
			<path fill="#000000" d="M960,181.25v860.5H99.5v-860.5H960 M960,141.25H59.5v940.5H960c22.09,0,40-17.91,40-40v-860.5 C1000,159.16,982.09,141.25,960,141.25L960,141.25z" />
			<path fill="#000000" d="M960,1300H59.5v-260H1000v220C1000,1282.09,982.09,1300,960,1300z" />
			<path fill="#595959" d="M24.89,334.04h110.97c13.75,0,24.89-11.14,24.89-24.89v-2.18c0-13.75-11.14-24.89-24.89-24.89H24.89 C11.14,282.08,0,293.22,0,306.97l0,2.18C0,322.9,11.14,334.04,24.89,334.04z" />
			<path fill="#595959" d="M24.89,609.09h110.97c13.75,0,24.89-11.14,24.89-24.89v-2.18c0-13.75-11.14-24.89-24.89-24.89H24.89 C11.14,557.12,0,568.27,0,582.01l0,2.18C0,597.94,11.14,609.09,24.89,609.09z" />
			<path fill="#595959" d="M24.89,884.13h110.97c13.75,0,24.89-11.14,24.89-24.89v-2.18c0-13.75-11.14-24.89-24.89-24.89H24.89 C11.14,832.16,0,843.31,0,857.05l0,2.18C0,872.98,11.14,884.13,24.89,884.13z" />
			<path fill="#595959" d="M24.89,1159.17h110.97c13.75,0,24.89-11.14,24.89-24.89v-2.18c0-13.75-11.14-24.89-24.89-24.89H24.89 c-13.75,0-24.89,11.14-24.89,24.89l0,2.18C0,1148.02,11.14,1159.17,24.89,1159.17z" />
			<text fill="#ffffff" font-size="90" x="559.5" y="1170.1" dominant-baseline="middle" text-anchor="middle" font-family="sans-serif">Scan me!</text></svg>

