<svg xmlns="http://www.w3.org/2000/svg" width="1000" height="1100" viewBox="0 0 1000 1100"><defs></defs><path fill="#000000" d="M147.91,719.14c-4.97,0-9-4.03-9-9V220.96c0-16.44,12.3-29.82,27.42-29.82h432.89c4.97,0,9,4.03,9,9s-4.03,9-9,9H166.33 c-5.2,0-9.42,5.3-9.42,11.82v489.18C156.91,715.11,152.88,719.14,147.91,719.14z" />
			<path fill="#000000" d="M833.54,913.19H400.64c-4.97,0-9-4.03-9-9s4.03-9,9-9h432.89c5.2,0,9.42-5.3,9.42-11.82V394.19c0-4.97,4.03-9,9-9 s9,4.03,9,9v489.18C860.96,899.82,848.66,913.19,833.54,913.19z" />
			<path fill="#000000" d="M312.42,871.55H194c-10.27,0-17.61-2.02-21.22-5.84c-2.26-2.38-3.23-5.74-2.99-10.25c0.52-9.5,1.31-18.38,2.01-26.22 c1.46-16.41,2.61-29.37,0.73-39.52c-2.47-13.3-10.29-21.07-23.23-23.09c-11.61-1.81-21.07,2.66-28.12,13.31 c-5.3,8-8.87,18.68-13.01,31.04c-3.08,9.23-6.28,18.77-10.55,28.34c-1.22,2.73-4.11,4.31-9.54,7.1 c-6.77,3.47-16.04,8.23-23.83,19.07c-1.38,1.92-2.67,3.95-3.88,6.05H-0.07v18h52.26c-4.74,13.12-6.78,24.61-6.91,25.38 c-0.85,4.9,2.43,9.55,7.33,10.4c4.9,0.84,9.55-2.43,10.41-7.32c0.05-0.26,4.73-26.51,15.86-42c5.26-7.31,11.44-10.49,17.43-13.56 c6.52-3.34,13.91-7.13,17.76-15.78c4.63-10.38,8.11-20.78,11.18-29.97c8.63-25.81,12.7-33.62,21.27-32.29 c5.3,0.83,7.25,2.84,8.32,8.6c1.43,7.72,0.38,19.6-0.96,34.63c-0.71,7.98-1.51,17.03-2.05,26.83c-0.52,9.45,2.21,17.61,7.89,23.6 c7.2,7.61,18.74,11.46,34.29,11.46h118.42c6.88,0,11.68,5.21,11.68,12.68c0,7.5-5.94,11.98-11.68,11.98h-71.84 c-1.58-0.26-3.19-0.4-4.84-0.4h-65.96c-16.53,0-29.99,13.45-29.99,29.99c0,11.04,6,20.7,14.91,25.91 c-2.96,4.65-4.69,10.16-4.69,16.07c0,10.3,5.22,19.4,13.15,24.8c-3.42,4.87-5.43,10.79-5.43,17.18c0,4.17,0.86,8.15,2.41,11.77 c-64.08-0.9-67.31-5.19-81.4-23.94c-3.89-5.18-7.4-12.29-10.42-21.13c-1.61-4.7-6.72-7.21-11.43-5.61 c-4.7,1.61-7.21,6.72-5.61,11.43c1.24,3.64,2.58,7.05,4,10.25H-0.07v18h66.03c8.95,11.85,16.28,20.43,35.4,24.69 c15.68,3.49,39.05,4.37,85.4,4.51c0.32,0.01,0.64,0.02,0.97,0.02h48.01c16.53,0,29.99-13.45,29.99-29.99 c0-8.16-3.28-15.57-8.6-20.99c5.31-5.41,8.6-12.82,8.6-20.99s-3.28-15.57-8.6-20.99c5.31-5.41,8.6-12.82,8.6-20.99 c0-4.11-0.83-8.02-2.33-11.59h49.03c16.37,0,29.68-13.45,29.68-29.98C342.1,884.74,329.34,871.55,312.42,871.55z M247.73,985.77 c0,6.61-5.38,11.99-11.99,11.99h-48.01h-7.72c-6.61,0-11.99-5.38-11.99-11.99s5.38-11.99,11.99-11.99h55.73 C242.35,973.79,247.73,979.16,247.73,985.77z M235.75,1039.73h-31.68c-5.9,0-11.46-0.01-16.73-0.02 c-6.42-0.21-11.59-5.49-11.59-11.97c0-6.61,5.38-11.99,11.99-11.99h48.01c6.61,0,11.99,5.38,11.99,11.99 C247.73,1034.36,242.35,1039.73,235.75,1039.73z M247.73,943.8c0,6.61-5.38,11.99-11.99,11.99h-55.73h-10.23 c-6.61,0-11.99-5.38-11.99-11.99s5.38-11.99,11.99-11.99h63.14c0.84,0.26,1.72,0.4,2.64,0.4h3.18 C243.91,933.55,247.73,938.23,247.73,943.8z" />
			<path fill="#000000" d="M1000.07,71.49h-66.03c-8.95-11.85-16.28-20.43-35.4-24.69c-17.52-3.9-44.63-4.53-102.71-4.53h-31.68 c-16.53,0-29.99,13.45-29.99,29.99c0,8.16,3.28,15.57,8.59,20.99c-5.31,5.41-8.59,12.82-8.59,20.99c0,8.16,3.28,15.57,8.59,20.99 c-5.31,5.41-8.59,12.82-8.59,20.99c0,4.11,0.83,8.02,2.33,11.59h-49.02c-16.37,0-29.68,13.45-29.68,29.98 c0,17.49,12.76,30.68,29.68,30.68H806c10.27,0,17.61,2.02,21.22,5.84c2.26,2.38,3.23,5.73,2.99,10.24 c-0.52,9.5-1.31,18.38-2.01,26.23c-1.46,16.41-2.61,29.37-0.73,39.52c2.47,13.3,10.29,21.07,23.23,23.09 c1.68,0.26,3.31,0.39,4.89,0.39c9.39,0,17.19-4.6,23.22-13.71c5.3-8,8.87-18.68,13.01-31.04c3.08-9.23,6.28-18.77,10.55-28.34 c1.22-2.73,4.11-4.31,9.54-7.1c6.77-3.47,16.04-8.23,23.83-19.07c1.38-1.92,2.67-3.95,3.88-6.05h60.44v-18h-52.26 c4.74-13.12,6.78-24.61,6.91-25.38c0.85-4.9-2.43-9.55-7.33-10.4c-4.91-0.85-9.55,2.43-10.41,7.32c-0.05,0.26-4.73,26.51-15.86,42 c-5.26,7.31-11.44,10.49-17.43,13.56c-6.52,3.34-13.91,7.13-17.76,15.78c-4.63,10.37-8.11,20.78-11.18,29.97 c-8.63,25.81-12.69,33.63-21.27,32.29c-5.3-0.83-7.25-2.84-8.32-8.6c-1.43-7.72-0.38-19.6,0.96-34.63 c0.71-7.98,1.52-17.03,2.05-26.83c0.52-9.45-2.21-17.61-7.89-23.61c-7.2-7.61-18.74-11.46-34.29-11.46H687.58 c-6.88,0-11.68-5.21-11.68-12.68c0-7.5,5.94-11.98,11.68-11.98h71.84c1.58,0.26,3.19,0.4,4.84,0.4c3.77,0,6.99-2.32,8.33-5.6 c0.54-1.15,0.85-2.44,0.85-3.8c0-4.97-4.03-9-9-9h-3.18c-5.16-1.34-8.99-6.02-8.99-11.59c0-6.61,5.38-11.99,11.99-11.99 c4.97,0,9-4.03,9-9c0-4.97-4.03-9-9-9c-6.61,0-11.99-5.38-11.99-11.99s5.38-11.99,11.99-11.99c4.97,0,9-4.03,9-9s-4.03-9-9-9 c-6.61,0-11.99-5.38-11.99-11.99s5.38-11.99,11.99-11.99h31.68c107.16,0,108.53,1.82,125.31,24.16 c3.89,5.18,7.4,12.29,10.42,21.13c1.61,4.7,6.72,7.21,11.43,5.61c4.7-1.61,7.21-6.72,5.61-11.43c-1.24-3.64-2.58-7.05-4-10.25 h55.37V71.49z" />
			<text transform="matrix(1 0 0 1 367.6821 1019.5089)" fill="#000000" font-size="80" font-family="sans-serif" font-weight="600">Scan me!</text></svg>

