<svg xmlns="http://www.w3.org/2000/svg" width="1000" height="1600" viewBox="0 0 1000 1600"><defs></defs><path fill="#000000" d="M960,0H40A40,40,0,0,0,0,40V1560a40,40,0,0,0,40,40H960a40,40,0,0,0,40-40V40A40,40,0,0,0,960,0ZM482,115h92a12,12,0,0,1,0,24H482a12,12,0,0,1,0-24Zm-48-8a20,20,0,1,1-20,20A20,20,0,0,1,434,107Zm66,1449.5a77.5,77.5,0,1,1,77.5-77.5A77.5,77.5,0,0,1,500,1556.5ZM960,1310a40,40,0,0,1-40,40H80a40,40,0,0,1-40-40V290a40,40,0,0,1,40-40H920a40,40,0,0,1,40,40Z"/><path fill="#000000" d="M500,1423a56,56,0,1,0,56,56A56.06,56.06,0,0,0,500,1423Zm0,104a48,48,0,1,1,48-48A48.05,48.05,0,0,1,500,1527Z"/><text x="50%" y="1225" fill="#000000" dominant-baseline="middle" text-anchor="middle" font-family="sans-serif" font-size="90" font-weight="600">Scan me!</text></svg>

