<svg xmlns="http://www.w3.org/2000/svg" width="1000" height="1300" viewBox="0 0 1000 1300"><defs></defs><path fill="#000000" d="M907.52,289.23L907.52,289.23C907.52,289.23,907.52,289.23,907.52,289.23v815.03l0,0H92.48V289.23H907.52 M907.52,249.23 H92.48c-22.09,0-40,17.91-40,40v815.03c0,22.09,17.91,40,40,40h815.03c22.09,0,40-17.91,40-40V289.23 C947.52,267.14,929.61,249.23,907.52,249.23L907.52,249.23z" />
			<path fill="#000000" d="M907.52,1300H92.48c-22.09,0-40-17.91-40-40v-150.64h895.03V1260C947.52,1282.09,929.61,1300,907.52,1300z" />
			<path fill="#595959" opacity="0.5" d="M1000,252.42v15.24l-209.57-1.74c1.86,12.94,1.16,27.19-6.31,41.09c-8.37,15.59-26.66,34.17-66.2,34.17 c-52.4,0-123.83-34.06-165.37-68.97c-7.74,5.33-17.01,8.3-26.65,8.3h-37.53c-9.65,0-18.91-2.97-26.65-8.3 c-41.53,34.91-112.97,68.97-165.37,68.97c-39.54,0-57.83-18.58-66.2-34.17c-7.48-13.93-8.18-28.21-6.3-41.18L0,267.66l1-15.24 H1000z" />
			<path fill="#595959" d="M315.72,84.4c0,0-230.43-8.32-299.14-1.84c36.1,32.76,68.76,76.64,68.76,76.64L1,252.42 c0,0,321.01-2.29,370.14-2.65C362.54,216.49,315.72,84.4,315.72,84.4z" />
			<path fill="#595959" d="M685.28,84.4c0,0,230.43-8.32,299.14-1.84c-36.1,32.76-68.76,76.64-68.76,76.64l84.34,93.22 c0,0-321.01-2.29-370.14-2.65C638.46,216.49,685.28,84.4,685.28,84.4z" />
			<path fill="#000000" d="M537.66,89.21c0,0,103.53-89.15,181.75-88.35s73.87,49.43,70.55,63.45c-5.88,24.89-36.04,85.94-36.04,119.67 s35.52,78.54,16.97,114.69c-37.32,72.75-202.56-15.9-233.24-68.91S537.66,89.21,537.66,89.21z" />
			<path fill="#595959" d="M580.48,91.21c0,0,133.1-95.59,171.62-55.62C794.79,79.88,580.48,91.21,580.48,91.21z" />
			<path fill="#000000" d="M476.59,89.21c0,0-103.53-89.15-181.75-88.35s-73.87,49.43-70.55,63.45c5.88,24.89,36.04,85.94,36.04,119.67 s-35.52,78.54-16.97,114.69c37.32,72.75,202.56-15.9,233.24-68.91S476.59,89.21,476.59,89.21z" />
			<path fill="#595959" d="M433.77,91.21c0,0-133.1-95.59-171.62-55.62C219.46,79.88,433.77,91.21,433.77,91.21z" />
			<path fill="#595959" d="M525.89,262.63h-37.53c-17.67,0-32-14.33-32-32V110.64c0-17.67,14.33-32,32-32h37.53c17.67,0,32,14.33,32,32 v119.99C557.89,248.31,543.56,262.63,525.89,262.63z" />
			<text fill="#ffffff" font-size="90" x="50%" y="1212" dominant-baseline="middle" text-anchor="middle" font-family="sans-serif" font-weight="600">Scan me!</text></svg>

