<svg xmlns="http://www.w3.org/2000/svg" width="1000" height="1300" viewBox="0 0 1000 1300"><defs></defs><path fill="#000000" d="M960,165.66L960,165.66L960,165.66v920H40v-920l0,0H960 M960,125.66H40c-22.09,0-40,17.91-40,40v920 c0,22.09,17.91,40,40,40h920c22.09,0,40-17.91,40-40v-920C1000,143.57,982.09,125.66,960,125.66L960,125.66z" />
			<path fill="#000000" d="M960,1299.66H40c-22.09,0-40-17.91-40-40v-173h1000v173C1000,1281.76,982.09,1299.66,960,1299.66z" />
			<path fill="#595959" d="M699.77,196.66H302.23c-7.31,0-13.23-5.92-13.23-13.23v-48.87c0-37.86,30.69-68.55,68.55-68.55h286.9 c37.86,0,68.55,30.69,68.55,68.55v48.87C713,190.74,707.08,196.66,699.77,196.66z" />
			<circle fill="#595959" cx="501" cy="66.34" r="66" />
			<circle fill="null" cx="501" cy="66.34" r="26.23" />
			<text fill="#ffffff" font-size="90" x="50%" y="1193" dominant-baseline="middle" text-anchor="middle" font-family="sans-serif">Scan me!</text></svg>



