<svg xmlns="http://www.w3.org/2000/svg" width="1000" height="1300" viewBox="0 0 1000 1300"><defs></defs><path fill="#000000" d="M925.5,75v849.84H75.67V75H925.5 M930.5,35H70.67c-19.33,0-35,15.67-35,35v859.84c0,19.33,15.67,35,35,35H930.5 c19.33,0,35-15.67,35-35V70C965.5,50.67,949.83,35,930.5,35L930.5,35z" />
			<path fill="#000000" d="M930.5,1265h-861c-19.33,0-35-15.67-35-35v-147.16c0-19.33,15.67-35,35-35h861c19.33,0,35,15.67,35,35V1230 C965.5,1249.33,949.83,1265,930.5,1265z" />
			<polygon fill="#000000" points="500.58,980.97 473.92,1016.3 447.26,1051.64 500.58,1051.64 553.9,1051.64 527.24,1016.3 500.58,980.97" />
			<text x="50%" y="1160" fill="#ffffff" dominant-baseline="middle" text-anchor="middle" font-family="sans-serif" font-size="90" font-weight="600">Scan me!</text></svg>

