<svg xmlns="http://www.w3.org/2000/svg" width="1000" height="1300" viewBox="0 0 1000 1300"><defs></defs><path fill="#000000" d="M903.9,988.2H96.1c-7.54,0-13.65-6.11-13.65-13.65v-2.71c0-7.54,6.11-13.65,13.65-13.65H903.9 c7.54,0,13.65,6.11,13.65,13.65v2.71C917.54,982.09,911.43,988.2,903.9,988.2z" />
			<path fill="#000000" d="M809,1078.7H191c-50.81,0-92-41.19-92-92v0h802v0C901,1037.51,859.81,1078.7,809,1078.7z" />
			<path fill="#000000" d="M709.27,1002.88H290.73c-77.87,0-141.23-63.36-141.23-141.23V317.59c0-13.62,11.08-24.71,24.71-24.71h651.58 c13.63,0,24.71,11.08,24.71,24.71v106.36c83.29,7.6,148.76,77.83,148.76,163.08S933.79,742.5,850.5,750.1v111.55 C850.5,939.52,787.14,1002.88,709.27,1002.88z M179.5,322.88v538.77c0,61.33,49.9,111.23,111.23,111.23h418.54 c61.33,0,111.23-49.9,111.23-111.23V720.78h15c73.75,0,133.76-60,133.76-133.76s-60-133.76-133.76-133.76h-15V322.88H179.5z" />
			<path fill="#000000" d="M835.5,675.23h-15V498.82h15c48.64,0,88.2,39.57,88.2,88.2S884.14,675.23,835.5,675.23z M850.5,530.78v112.49 c24.85-6.63,43.2-29.34,43.2-56.24S875.35,537.41,850.5,530.78z" />
			<path fill="#000000" d="M364.45,253.68c-3.03,0-6.08-0.91-8.73-2.81c-6.73-4.83-8.28-14.2-3.45-20.93c6.52-9.14,16.88-27.82,16.88-38.99 c0-16.59-4.15-24.11-8.95-32.82c-5.03-9.13-10.74-19.49-10.74-37.14c0-36.3,24.26-56.21,25.29-57.04l18.79,23.38l0.13-0.11 c-0.58,0.49-14.21,12.23-14.21,33.77c0,9.94,2.79,15,7.01,22.66c5.65,10.24,12.67,22.99,12.67,47.3 c0,24.38-20.19,53.25-22.49,56.47C373.73,251.51,369.12,253.68,364.45,253.68z" />
			<path fill="#000000" d="M490.14,253.68c-3.03,0-6.08-0.91-8.73-2.81c-6.73-4.83-8.28-14.2-3.45-20.93c6.52-9.14,16.88-27.82,16.88-38.99 c0-16.59-4.15-24.11-8.95-32.82c-5.03-9.13-10.74-19.49-10.74-37.14c0-36.3,24.26-56.21,25.29-57.04l18.79,23.38l0.13-0.11 c-0.58,0.49-14.21,12.23-14.21,33.77c0,9.94,2.79,15,7.01,22.66c5.65,10.24,12.67,22.99,12.67,47.3 c0,24.38-20.19,53.25-22.49,56.47C499.42,251.51,494.82,253.68,490.14,253.68z" />
			<path fill="#000000" d="M615.84,253.68c-3.03,0-6.08-0.91-8.73-2.81c-6.73-4.83-8.28-14.2-3.45-20.93c6.52-9.14,16.88-27.82,16.88-38.99 c0-16.59-4.15-24.11-8.95-32.82c-5.03-9.13-10.74-19.49-10.74-37.14c0-36.3,24.26-56.21,25.29-57.04l18.79,23.38l0.13-0.11 c-0.58,0.49-14.21,12.23-14.21,33.77c0,9.94,2.79,15,7.01,22.66c5.65,10.24,12.67,22.99,12.67,47.3 c0,24.38-20.19,53.25-22.49,56.47C625.11,251.51,620.51,253.68,615.84,253.68z" />
			<text fill="#000000" font-size="70" x="50%" y="1193" dominant-baseline="middle" text-anchor="middle" font-family="sans-serif">Scan me!</text></svg>

