<svg xmlns="http://www.w3.org/2000/svg" width="1000" height="1300" viewBox="0 0 1000 1300"><defs></defs><path fill="#000000" d="M960,0H40A40,40,0,0,0,0,40V1260a40,40,0,0,0,40,40H960a40,40,0,0,0,40-40V40A40,40,0,0,0,960,0Zm20,1260a20,20,0,0,1-20,20H40a20,20,0,0,1-20-20V40A20,20,0,0,1,40,20H960a20,20,0,0,1,20,20Z"/><rect fill="#000000" x="21" y="970" width="958" height="20"/><text	x="50%" y="1135" fill="#000000" dominant-baseline="middle" text-anchor="middle" font-family="sans-serif" font-size="90" font-weight="600">Scan me!</text></svg>


