<svg xmlns="http://www.w3.org/2000/svg" width="1000" height="990" viewBox="0 0 1000 990"><defs></defs><path fill="#000000" d="M805.5,96.15c5.51,0,10,4.49,10,10v621h-631v-621c0-5.51,4.49-10,10-10H805.5 M805.5,66.15h-611c-22.09,0-40,17.91-40,40 v651h691v-651C845.5,84.06,827.59,66.15,805.5,66.15L805.5,66.15z" />
			<polygon fill="#595959" points="154.5,789.86 0,789.86 58.69,691.61 0,593.36 154.5,593.36" />
			<path fill="null" d="M154.5,736.04c0-37.88,0-79.17,0-103.02c0,0-53.2,20.93-53.2,48.5C101.3,736.04,154.5,736.04,154.5,736.04z" />
			<polygon fill="#595959" points="845.5,789.86 1000,789.86 941.31,691.61 1000,593.36 845.5,593.36" />
			<path fill="null" d="M845.5,736.04c0-37.88,0-79.17,0-103.02c0,0,53.2,20.93,53.2,48.5C898.7,736.04,845.5,736.04,845.5,736.04z" />
			<path fill="#000000" d="M101.3,681.69v-3.03C101.27,679.69,101.27,680.7,101.3,681.69z" />
			<path fill="#000000" d="M101.3,678.61v0.05C101.3,678.64,101.3,678.63,101.3,678.61L101.3,678.61z" />
			<path fill="#000000" d="M898.7,678.66v3.03C898.73,680.7,898.73,679.69,898.7,678.66z" />
			<path fill="#000000" d="M898.7,806.14V681.69c-1.64,53.28-100.07,45.66-154.26,45.66H516.23h-32.46H255.56c-54.18,0-152.62,7.62-154.26-45.66 l0,124.44c-0.01,0.34-0.03,0.68-0.03,1.02v66.69c0,27.61,22.39,50,50,50h104.28h228.21h32.46h228.21h104.28 c27.61,0,50-22.39,50-50v-66.69C898.72,806.81,898.7,806.48,898.7,806.14z" />
			<text fill="#ffffff" font-size="90" x="50%" y="831" dominant-baseline="middle" text-anchor="middle" font-family="sans-serif" font-weight="600">Scan me!</text></svg>

