<svg xmlns="http://www.w3.org/2000/svg" width="1000" height="990" viewBox="0 0 1000 990"><defs></defs><path fill="#595959" d="M846.16,749.44c-66.41,0-120.25,53.84-120.25,120.25s53.84,120.25,120.25,120.25 s120.25-53.84,120.25-120.25S912.57,749.44,846.16,749.44z M846.16,946.58c-42.46,0-76.88-34.42-76.88-76.88 c0-42.46,34.42-76.88,76.88-76.88s76.88,34.42,76.88,76.88C923.04,912.15,888.62,946.58,846.16,946.58z" />
			<ellipse fill="#595959" transform="matrix(0.7071 -0.7071 0.7071 0.7071 -367.1294 853.0522)" cx="846.16" cy="869.69" rx="38.5" ry="38.5" />
			<path fill="#595959" d="M338.81,749.44c-66.41,0-120.25,53.84-120.25,120.25s53.84,120.25,120.25,120.25 s120.25-53.84,120.25-120.25S405.23,749.44,338.81,749.44z M338.81,946.58c-42.46,0-76.88-34.42-76.88-76.88 c0-42.46,34.42-76.88,76.88-76.88s76.88,34.42,76.88,76.88C415.7,912.15,381.27,946.58,338.81,946.58z" />
			<ellipse fill="#595959" transform="matrix(0.7071 -0.7071 0.7071 0.7071 -515.7283 494.3027)" cx="338.81" cy="869.69" rx="38.5" ry="38.5" />
			<path fill="#000000" d="M1000,835.9c0-0.03,0-0.05,0-0.08c0-84.96-68.88-153.84-153.84-153.84s-153.84,68.88-153.84,153.84c0,0.03,0,0.05,0,0.08 H1000z" />
			<path fill="#595959" d="M871.73,683.59l-103.67-218.7l12.65-2.85l-20.27-89.98c-2.93-13.02-15.86-21.19-28.88-18.26l-104.75,23.6 l18.91,83.92c3.69,16.37,19.95,26.65,36.31,22.96h0l35.33,213.86c2.78,16.84-2.73,33.98-14.79,46.05l-44.73,44.73 c-9.93,9.93-23.39,15.5-37.42,15.5h-73.36V670.42h31.4c6.81,0,12.33-5.52,12.33-12.33V610.6c0-6.81-5.52-12.33-12.33-12.33 H273.07c-6.81,0-12.33,5.52-12.33,12.33v27.58C184.09,669.1,130,744.18,130,831.9c0,5.35,0.2,10.66,0.6,15.91 c0.93,12.33,11.14,21.88,23.5,21.88h328.81h61.29h104.94c13.3,0,26.11-5.01,35.89-14.03l186.01-171.62l-0.12-0.16L871.73,683.59z " />
			<path fill="#000000" d="M672.21,403.78l-91.07,20.52c-8.37,1.89-16.68-3.37-18.56-11.74l-0.99-4.4c-1.89-8.37,3.37-16.68,11.74-18.56 l91.07-20.52c8.37-1.89,16.68,3.37,18.56,11.74l0.99,4.4C685.83,393.59,680.58,401.9,672.21,403.78z" />
			<path fill="#000000" d="M837.95,388.77c0-5.84-4.74-10.57-10.57-10.54c-8.38,0.03-18.86,0.25-20.93,0.25c-29.72,0-53.82,24.1-53.82,53.82 c0,29.72,24.1,53.82,53.82,53.82c2.07,0,12.55,0.22,20.93,0.25c5.84,0.02,10.57-4.71,10.57-10.54V388.77z" />
			<path fill="#000000" d="M498.38,869.69c0-0.03,0-0.06,0-0.09c0-88.13-71.44-159.57-159.57-159.57S179.25,781.48,179.25,869.6 c0,0.03,0,0.06,0,0.09H498.38z" />
			<path fill="#000000" d="M494.6,22.06c9.93,0,18,8.07,18,18v472.6H22V40.06c0-9.93,8.07-18,18-18H494.6 M494.6,0.06H40c-22.09,0-40,17.91-40,40 v494.6h534.6V40.06C534.6,17.97,516.69,0.06,494.6,0.06L494.6,0.06z" />
			<path fill="#000000" d="M494.6,647.9H40c-22.09,0-40-17.91-40-40v-93.63h534.6v93.63C534.6,629.99,516.69,647.9,494.6,647.9z" />
			<text fill="#ffffff" font-size="70" x="267" y="581" dominant-baseline="middle" text-anchor="middle" font-family="sans-serif">Scan me!</text></svg>

