<svg xmlns="http://www.w3.org/2000/svg" width="1000" height="1300" viewBox="0 0 1000 1300"><defs></defs><path fill="#000000" d="M747.71,174.5l54.27-40H479.4c1.7,3.78,0.6,8.36-2.87,10.92l-39.45,29.08H747.71z" />
			<path fill="#000000" d="M778.05,174.5H860v223.42l40-29.48V174.5c0-22.09-17.91-40-40-40h-27.68L778.05,174.5z" />
			<path fill="#000000" d="M140,282.07V174.5h266.74l54.27-40H399l-49.49,36.48c-1.61,1.18-3.48,1.76-5.33,1.76c-2.76,0-5.49-1.27-7.25-3.66 c-2.95-4-2.1-9.64,1.91-12.58l29.83-21.99H198.71l-17.76,13.09c-1.61,1.18-3.48,1.76-5.33,1.76c-2.76,0-5.49-1.27-7.25-3.66 c-2.53-3.44-2.25-8.07,0.41-11.18H140c-22.09,0-40,17.91-40,40v137.06L140,282.07z" />
			<path fill="#000000" d="M887.36,1066.27c-1.61,1.18-3.48,1.76-5.33,1.76c-2.76,0-5.49-1.27-7.25-3.66c-2.95-4-2.1-9.64,1.91-12.58l23.32-17.19 V894.5c0,0,0,0,0,0V787.19l-17.25,12.71c-1.61,1.18-3.48,1.76-5.33,1.76c-2.76,0-5.49-1.27-7.25-3.66 c-2.95-4-2.1-9.64,1.91-12.58L900,764.82v-47.87l-10.96,8.08c-1.61,1.18-3.48,1.76-5.33,1.76c-2.76,0-5.49-1.27-7.25-3.66 c-2.95-4-2.1-9.64,1.91-12.58L900,694.6V461.43l-1.7,1.26c-1.61,1.18-3.48,1.76-5.33,1.76c-2.76,0-5.49-1.27-7.25-3.66 c-2.95-4-2.1-9.64,1.91-12.58l12.38-9.13v-48.27l-40,29.48V894.5H140V304.43l-40,29.48v45.25l18.32-13.57 c3.99-2.96,9.63-2.12,12.59,1.87c2.96,3.99,2.12,9.63-1.87,12.59L100,401.57v237.09l22.15-16.33c4-2.95,9.63-2.1,12.58,1.91 c2.95,4,2.1,9.64-1.91,12.58L100,661.03v40.92l12.46-9.19c4-2.95,9.63-2.1,12.58,1.91c2.95,4,2.1,9.64-1.91,12.58L100,724.31 V894.5v78.3l11.04-8.14c4-2.95,9.64-2.1,12.58,1.91s2.1,9.64-1.91,12.58L100,995.16v131.34c0,22.09,17.91,40,40,40h20.43 l43.17-31.82c4-2.95,9.64-2.1,12.58,1.91s2.1,9.64-1.91,12.58l-23.51,17.33h307.58l26.37-19.44c4-2.95,9.63-2.1,12.58,1.91 c2.95,4,2.1,9.64-1.91,12.58l-6.71,4.95h273.1l38.99-28.74c4-2.95,9.64-2.1,12.58,1.91s2.1,9.64-1.91,12.58l-19.33,14.25H860 c22.09,0,40-17.91,40-40v-69.54L887.36,1066.27z" />
			<path fill="#000000" d="M45.62,358.14c-2.76,0-5.49-1.27-7.25-3.66c-2.95-4-2.1-9.64,1.91-12.58l108.69-80.11c4-2.95,9.63-2.1,12.58,1.91 c2.95,4,2.1,9.64-1.91,12.58L50.96,356.39C49.35,357.57,47.48,358.14,45.62,358.14z" />
			<path fill="#000000" d="M16.49,706.72c-2.76,0-5.49-1.27-7.25-3.66c-2.95-4-2.1-9.64,1.91-12.58l108.69-80.11c4-2.95,9.64-2.1,12.58,1.91 s2.1,9.64-1.91,12.58L21.83,704.97C20.22,706.15,18.35,706.72,16.49,706.72z" />
			<path fill="#000000" d="M97.94,1219.07c-2.76,0-5.49-1.27-7.25-3.66c-2.95-4-2.1-9.64,1.91-12.58l108.69-80.11c4-2.95,9.63-2.1,12.58,1.91 c2.95,4,2.1,9.64-1.91,12.58l-108.69,80.11C101.67,1218.5,99.8,1219.07,97.94,1219.07z" />
			<path fill="#000000" d="M875.11,789.68c-2.76,0-5.49-1.27-7.25-3.66c-2.95-4-2.1-9.64,1.91-12.58l108.69-80.11c4-2.95,9.64-2.1,12.58,1.91 s2.1,9.64-1.91,12.58l-108.69,80.11C878.83,789.11,876.96,789.68,875.11,789.68z" />
			<path fill="#000000" d="M419.06,1231.45c-2.76,0-5.49-1.27-7.25-3.66c-2.95-4-2.1-9.64,1.91-12.58l108.69-80.11c4-2.95,9.64-2.1,12.58,1.91 s2.1,9.64-1.91,12.58l-108.69,80.11C422.79,1230.88,420.92,1231.45,419.06,1231.45z" />
			<path fill="#000000" d="M831.84,425.18c-2.76,0-5.49-1.27-7.25-3.66c-2.95-4-2.1-9.64,1.91-12.58l99.11-73.05c4-2.95,9.63-2.1,12.58,1.91 c2.95,4,2.1,9.64-1.91,12.58l-99.11,73.05C835.56,424.61,833.69,425.18,831.84,425.18z" />
			<path fill="#000000" d="M890.65,452.47c-2.76,0-5.49-1.27-7.25-3.66c-2.95-4-2.1-9.64,1.91-12.58l74.04-54.57c4-2.95,9.63-2.1,12.58,1.91 c2.95,4,2.1,9.64-1.91,12.58l-74.04,54.57C894.38,451.9,892.5,452.47,890.65,452.47z" />
			<path fill="#000000" d="M72.96,728.38c-2.76,0-5.49-1.27-7.25-3.66c-2.95-4-2.1-9.64,1.91-12.58l42.53-31.35c4-2.95,9.64-2.1,12.58,1.91 c2.95,4,2.1,9.64-1.91,12.58L78.3,726.63C76.69,727.81,74.82,728.38,72.96,728.38z" />
			<path fill="#000000" d="M45.9,1206.31c-2.76,0-5.49-1.27-7.25-3.66c-2.95-4-2.1-9.64,1.91-12.58l42.53-31.35c4-2.95,9.63-2.1,12.58,1.91 c2.95,4,2.1,9.64-1.91,12.58l-42.53,31.35C49.63,1205.74,47.75,1206.31,45.9,1206.31z" />
			<path fill="#000000" d="M341.86,160.76c-2.76,0-5.49-1.27-7.25-3.66c-2.95-4-2.1-9.64,1.91-12.58L445.21,64.4c4-2.95,9.64-2.1,12.58,1.91 c2.95,4,2.1,9.64-1.91,12.58l-108.69,80.11C345.58,160.19,343.71,160.76,341.86,160.76z" />
			<path fill="#000000" d="M83.39,398c-2.75,0-5.47-1.26-7.24-3.64c-2.96-3.99-2.12-9.63,1.88-12.59L116,353.63c3.99-2.96,9.63-2.12,12.59,1.88 c2.96,3.99,2.12,9.63-1.88,12.59l-37.98,28.14C87.13,397.42,85.25,398,83.39,398z" />
			<path fill="#000000" d="M758.34,1205.04c-2.76,0-5.49-1.27-7.25-3.66c-2.95-4-2.1-9.64,1.91-12.58l85.48-63c4-2.95,9.63-2.1,12.58,1.91 c2.95,4,2.1,9.64-1.91,12.58l-85.48,63C762.06,1204.47,760.19,1205.04,758.34,1205.04z" />
			<path fill="#000000" d="M407.03,180.79c-2.76,0-5.49-1.27-7.25-3.66c-2.95-4-2.1-9.64,1.91-12.58l61.85-45.59c4-2.95,9.64-2.1,12.58,1.91 c2.95,4,2.1,9.64-1.91,12.58l-61.85,45.59C410.76,180.22,408.89,180.79,407.03,180.79z" />
			<path fill="#000000" d="M767.87,97.2c-2.76,0-5.49-1.27-7.25-3.66c-2.95-4-2.1-9.64,1.91-12.58l61.85-45.59c4-2.95,9.64-2.1,12.58,1.91 s2.1,9.64-1.91,12.58L773.2,95.44C771.6,96.62,769.72,97.2,767.87,97.2z" />
			<path fill="#000000" d="M173.3,137.37c-2.76,0-5.49-1.27-7.25-3.66c-2.95-4-2.1-9.64,1.91-12.58l61.85-45.59c4-2.95,9.63-2.1,12.58,1.91 c2.95,4,2.1,9.64-1.91,12.58l-61.85,45.59C177.03,136.8,175.16,137.37,173.3,137.37z" />
			<path fill="#000000" d="M879.71,1056.06c-2.76,0-5.49-1.27-7.25-3.66c-2.95-4-2.1-9.64,1.91-12.58l94.79-69.87c4-2.95,9.63-2.1,12.58,1.91 c2.95,4,2.1,9.64-1.91,12.58l-94.79,69.87C883.44,1055.49,881.57,1056.06,879.71,1056.06z" />
			<path fill="#000000" d="M739.72,186.9c-2.76,0-5.49-1.27-7.25-3.66c-2.95-4-2.1-9.64,1.91-12.58l90-66.33c4-2.95,9.64-2.1,12.58,1.91 s2.1,9.64-1.91,12.58l-90,66.33C743.45,186.33,741.58,186.9,739.72,186.9z" />
			<path fill="#000000" d="M520.45,97.2c-2.76,0-5.49-1.27-7.25-3.66c-2.95-4-2.1-9.64,1.91-12.58L536,65.55c4-2.95,9.64-2.1,12.58,1.91 c2.95,4,2.1,9.64-1.91,12.58l-20.89,15.4C524.18,96.62,522.31,97.2,520.45,97.2z" />
			<path fill="#000000" d="M881.4,714.82c-2.76,0-5.49-1.27-7.25-3.66c-2.95-4-2.1-9.64,1.91-12.58l42.44-31.28c4-2.95,9.63-2.1,12.58,1.91 c2.95,4,2.1,9.64-1.91,12.58l-42.44,31.28C885.12,714.25,883.25,714.82,881.4,714.82z" />
			<path fill="#000000" d="M71.63,1000.22c-2.76,0-5.49-1.27-7.25-3.66c-2.95-4-2.1-9.64,1.91-12.58l42.44-31.28c4-2.95,9.64-2.1,12.58,1.91 s2.1,9.64-1.91,12.58l-42.44,31.28C75.36,999.65,73.49,1000.22,71.63,1000.22z" />
			<path fill="#000000" d="M516.74,1227.53c-2.76,0-5.49-1.27-7.25-3.66c-2.95-4-2.1-9.64,1.91-12.58l20.89-15.4c4-2.95,9.63-2.1,12.58,1.91 c2.95,4,2.1,9.64-1.91,12.58l-20.89,15.4C520.46,1226.95,518.59,1227.53,516.74,1227.53z" />
			<text fill="#ffffff" font-size="90" x="50%" y="1038" dominant-baseline="middle" text-anchor="middle" font-family="sans-serif" font-weight="600">Scan me!</text></svg>


