<svg xmlns="http://www.w3.org/2000/svg" width="1000" height="1300" viewBox="0 0 1000 1300"><defs></defs><ellipse fill="#595959" cx="500" cy="77.66" rx="84.18" ry="77.66" />
			<ellipse fill="#000000" cx="500" cy="355.25" rx="431.82" ry="289.59" />
			<ellipse fill="#000000" cx="500" cy="462.67" rx="449.3" ry="227.62" />
			<path fill="#000000" d="M979.16,1103.64c0-31.96,0-88.8,0-88.8l-957.45-9.33c0,0-0.88,58.47-0.88,98.13C20.84,1212.08,235.37,1300,500,1300 S979.16,1212.08,979.16,1103.64z" />
			<ellipse fill="#595959" cx="500" cy="966.52" rx="500" ry="253.31" />
			<ellipse fill="#000000" cx="500" cy="940.02" rx="449.3" ry="227.62" />
			<path fill="null" d="M847.48,955.96H152.52V301c0-22.09,17.91-40,40-40h614.96c22.09,0,40,17.91,40,40V955.96z" />
			<path fill="#000000" d="M820.75,277.73c5.51,0,10,4.49,10,10v651.5h-661.5v-651.5c0-5.51,4.49-10,10-10H820.75 M820.75,247.73h-641.5 c-22.09,0-40,17.91-40,40v681.5h721.5v-681.5C860.75,265.64,842.84,247.73,820.75,247.73L820.75,247.73z" />
			<path fill="#595959" d="M500,182.86c-276.14,0-500,113.41-500,253.31c0,68.07,53.01,129.87,139.25,175.39v-13.19 c-55.63-37.89-88.55-84.85-88.55-135.7c0-125.71,201.16-227.62,449.3-227.62s449.3,101.91,449.3,227.62 c0,50.85-32.92,97.81-88.55,135.7v13.19C946.99,566.05,1000,504.25,1000,436.17C1000,296.27,776.14,182.86,500,182.86z" />
			<text fill="#ffffff" font-size="90" x="50%" y="1031" dominant-baseline="middle" text-anchor="middle" font-family="sans-serif">Scan me!</text></svg>


