<svg xmlns="http://www.w3.org/2000/svg" width="1000" height="1300" viewBox="0 0 1000 1300"><defs></defs><polygon fill="#000000" points="864.31,551.09 980.65,652.92 869.6,740.63" />
			<polygon fill="#000000" points="135.69,551.09 19.35,652.92 130.4,740.63" />
			<path fill="#000000" d="M878.8,539.58V116.77c0-24.22-19.63-43.85-43.85-43.85H165.06c-24.22,0-43.85,19.63-43.85,43.85v422.81L1.38,632.35 v599.37c0,37.48,30.49,67.97,67.97,67.97h861.31c37.48,0,67.97-30.49,67.97-67.97V632.35L878.8,539.58z M962.69,689.55v458.25 L666.74,918.67L962.69,689.55z M958.9,647.04l-80.1,62.02V585.02L958.9,647.04z M165.06,105.8h669.88 c6.04,0,10.96,4.92,10.96,10.96v617.75L637.4,895.95l-94.56-73.21c-25.22-19.53-60.44-19.52-85.66,0l-94.56,73.21L154.1,734.52 V116.77C154.1,110.72,159.01,105.8,165.06,105.8z M333.26,918.67L37.31,1147.8V689.55L333.26,918.67z M121.2,709.05l-80.1-62.02 l80.1-62.02V709.05z M930.65,1263.75H69.35c-17.66,0-32.03-14.37-32.03-32.03v-38.47l441.86-342.09c12.26-9.5,29.4-9.5,41.66,0 l441.85,342.09v38.47C962.69,1249.38,948.32,1263.75,930.65,1263.75z" />
			<text fill="#000000" font-size="90" x="50%" y="1160" dominant-baseline="middle" text-anchor="middle" font-family="sans-serif" font-weight="600">Scan me!</text></svg>

